<svg
    width="24"
    height="24"
    viewBox="0 0 24 24"
    fill="none"
    xmlns="http://www.w3.org/2000/svg"
>
    <path
        d="M19.5744 14.3673H16.3907V11.1836C16.3907 11.0429 16.3348 10.9079 16.2353 10.8084C16.1358 10.7089 16.0009 10.653 15.8601 10.653C15.7194 10.653 15.5844 10.7089 15.4849 10.8084C15.3854 10.9079 15.3295 11.0429 15.3295 11.1836V14.3673H12.1458C12.0051 14.3673 11.8702 14.4232 11.7706 14.5227C11.6711 14.6222 11.6152 14.7572 11.6152 14.8979C11.6152 15.0386 11.6711 15.1736 11.7706 15.2731C11.8702 15.3726 12.0051 15.4285 12.1458 15.4285H15.3295V18.6122C15.3295 18.7529 15.3854 18.8879 15.4849 18.9874C15.5844 19.0869 15.7194 19.1428 15.8601 19.1428C16.0009 19.1428 16.1358 19.0869 16.2353 18.9874C16.3348 18.8879 16.3907 18.7529 16.3907 18.6122V15.4285H19.5744C19.7151 15.4285 19.8501 15.3726 19.9496 15.2731C20.0491 15.1736 20.105 15.0386 20.105 14.8979C20.105 14.7572 20.0491 14.6222 19.9496 14.5227C19.8501 14.4232 19.7151 14.3673 19.5744 14.3673Z"
        fill="#2B2A70"
    />
    <path
        d="M11.1604 17.4752H4.79309V5.65009H15.2537V9.28857"
        stroke="#2B2A70"
        stroke-width="1.21283"
        stroke-dasharray="1.21 1.21"
    />
    <circle cx="4.79308" cy="5.65014" r="1.36443" fill="#2B2A70" />
    <ellipse
        cx="4.79308"
        cy="17.4752"
        rx="1.36443"
        ry="1.36443"
        fill="#2B2A70"
    />
    <circle cx="15.7085" cy="5.65014" r="1.36443" fill="#2B2A70" />
</svg>
