<svg
    width="20"
    height="20"
    viewBox="0 0 20 20"
    fill="none"
    xmlns="http://www.w3.org/2000/svg"
>
    <path
        d="M13.824 11.4707H11.1769V10.5883H13.824V11.4707ZM15.5887 15.0001H12.9416V14.1177H15.5887V15.0001ZM14.7064 13.2354H12.0593V12.353H14.7064V13.2354Z"
        fill="#2B2A70"
    />
    <path
        d="M9.8552 11.4707C9.85209 11.0984 9.7528 10.7333 9.56697 10.4107C9.38114 10.0881 9.11508 9.81906 8.79461 9.62963L12.0598 3.97066L11.2965 3.52948L7.95372 9.32036C7.54347 9.22871 7.11679 9.24139 6.71271 9.35723C6.30862 9.47307 5.94002 9.68837 5.64064 9.98345C3.98887 11.5765 4.11681 15.301 4.12299 15.4589C4.12755 15.5728 4.17604 15.6805 4.25828 15.7595C4.34053 15.8385 4.45015 15.8825 4.56417 15.8824H11.1778C11.2704 15.8824 11.3607 15.8533 11.4358 15.7991C11.5109 15.745 11.5671 15.6686 11.5964 15.5808C11.6257 15.4929 11.6266 15.3981 11.599 15.3097C11.5713 15.2213 11.5166 15.1439 11.4425 15.0883C9.88078 13.9165 9.8552 11.4945 9.8552 11.4707ZM7.61711 10.1458C7.97021 10.1497 8.30823 10.2896 8.56083 10.5363C8.81342 10.7831 8.96115 11.1177 8.97328 11.4707C8.97328 11.4874 8.97417 11.5624 8.98078 11.6776L6.37784 10.5199C6.5493 10.3785 6.74716 10.2727 6.95991 10.2084C7.17266 10.1442 7.39606 10.1229 7.61711 10.1458ZM9.17005 15.0001C8.81741 14.641 8.59263 14.1759 8.53034 13.6765H7.64799C7.67959 14.1461 7.82625 14.6006 8.07505 15.0001H7.09431C6.91288 14.4275 6.80249 13.8348 6.76564 13.2354H5.88328C5.91173 13.833 6.0102 14.4253 6.17667 15.0001H5.00093C5.01461 14.1901 5.12887 12.4007 5.79637 11.2267L9.11975 12.7046C9.27943 13.5337 9.61985 14.3175 10.1168 15.0001H9.17005Z"
        fill="#2B2A70"
    />
    <rect x="0.5" y="0.5" width="19" height="19" rx="9.5" stroke="#2B2A70" />
</svg>
