<svg
    width="24"
    height="24"
    viewBox="0 0 24 24"
    fill="none"
    xmlns="http://www.w3.org/2000/svg"
>
    <path
        d="M12.5255 3.74714C13.004 3.26875 13.653 3 14.3296 3C15.0063 3 15.6552 3.26875 16.1338 3.74714L21.0831 8.69644C21.5615 9.17498 21.8302 9.82394 21.8302 10.5006C21.8302 11.1773 21.5615 11.8262 21.0831 12.3047L14.0655 19.3223C13.5871 19.8009 12.9381 20.0699 12.2614 20.07H8.7411C8.06436 20.0699 7.4154 19.8009 6.93695 19.3223L3.74714 16.1325C3.26875 15.654 3 15.005 3 14.3284C3 13.6517 3.26875 13.0027 3.74714 12.5242L12.5242 3.74714H12.5255ZM15.2317 4.64922C14.9924 4.41002 14.668 4.27565 14.3296 4.27565C13.9913 4.27565 13.6668 4.41002 13.4276 4.64922L7.51622 10.5606L14.2697 17.314L20.181 11.4027C20.4202 11.1634 20.5546 10.8389 20.5546 10.5006C20.5546 10.1623 20.4202 9.83779 20.181 9.59852L15.2317 4.64922ZM13.3676 18.2161L6.61414 11.4626L4.6505 13.4263C4.4113 13.6656 4.27692 13.99 4.27692 14.3284C4.27692 14.6667 4.4113 14.9912 4.6505 15.2304L7.8403 18.4202C8.07952 18.6595 8.40401 18.794 8.74238 18.7941H12.2626C12.601 18.794 12.9255 18.6595 13.1647 18.4202L13.3689 18.2161H13.3676Z"
        fill="#2B2A70"
    />
</svg>
