<svg
    width="22"
    height="22"
    viewBox="0 0 22 22"
    fill="none"
    xmlns="http://www.w3.org/2000/svg"
>
    <path
        d="M19.712 19.712C19.904 19.5207 20 19.2833 20 19V18C20 17.7167 20.096 17.4793 20.288 17.288C20.4793 17.096 20.7167 17 21 17C21.2833 17 21.5207 17.096 21.712 17.288C21.904 17.4793 22 17.7167 22 18V19C22 19.8333 21.7083 20.5417 21.125 21.125C20.5417 21.7083 19.8333 22 19 22H18C17.7167 22 17.4793 21.904 17.288 21.712C17.096 21.5207 17 21.2833 17 21C17 20.7167 17.096 20.4793 17.288 20.288C17.4793 20.096 17.7167 20 18 20H19C19.2833 20 19.5207 19.904 19.712 19.712ZM19.712 19.712L19.8532 19.8537C19.8533 19.8536 19.8533 19.8535 19.8534 19.8534C19.8535 19.8533 19.8536 19.8533 19.8537 19.8532L19.712 19.712ZM10.0997 18.3766L10.1002 18.3769C10.3879 18.5435 10.6868 18.625 11 18.625C11.3132 18.625 11.6121 18.5435 11.8998 18.3769L11.9003 18.3766L16.8998 15.5019C16.8998 15.5019 16.8999 15.5019 16.8999 15.5018C17.1869 15.3357 17.407 15.1152 17.5642 14.8391C17.7211 14.5616 17.8 14.2582 17.8 13.925V8.2C17.8 7.86681 17.7211 7.5634 17.5642 7.28594L10.0997 18.3766ZM10.0997 18.3766L5.10021 15.5019C5.10016 15.5019 5.1001 15.5019 5.10005 15.5018C4.81315 15.3357 4.59347 15.1153 4.43697 14.8393L4.4369 14.8392M10.0997 18.3766L4.4369 14.8392M4.4369 14.8392C4.27925 14.5617 4.2 14.2582 4.2 13.925V8.2C4.2 7.86678 4.27925 7.56332 4.4369 7.28578L4.43697 7.28566M4.4369 14.8392L4.43697 7.28566M4.43697 7.28566C4.59345 7.00973 4.81309 6.78937 5.09994 6.62324C5.10003 6.62319 5.10012 6.62314 5.10021 6.62309L10.0997 3.74838L10.1002 3.74809M4.43697 7.28566L10.1002 3.74809M10.1002 3.74809C10.3879 3.58155 10.6868 3.5 11 3.5C11.3132 3.5 11.6121 3.58155 11.8998 3.74809L11.9003 3.74838M10.1002 3.74809L11.9003 3.74838M11.9003 3.74838L16.8998 6.62309M11.9003 3.74838L16.8998 6.62309M16.8998 6.62309C16.8999 6.62314 16.9 6.62319 16.9001 6.62324M16.8998 6.62309L16.9001 6.62324M16.9001 6.62324C17.1868 6.78931 17.4068 7.00962 17.5639 7.2855L16.9001 6.62324ZM0.429176 17.4297L0.429667 17.4292C0.58162 17.2767 0.767147 17.2 1 17.2C1.23286 17.2 1.41887 17.2767 1.57158 17.4294C1.72348 17.5813 1.8 17.7669 1.8 18V19C1.8 19.3336 1.91514 19.6225 2.14633 19.8532C2.37705 20.0847 2.66619 20.2 3 20.2H4C4.23286 20.2 4.41887 20.2767 4.57158 20.4294C4.72348 20.5813 4.8 20.7669 4.8 21C4.8 21.2331 4.72348 21.4187 4.57158 21.5706C4.41887 21.7233 4.23286 21.8 4 21.8H3C2.2191 21.8 1.56182 21.529 1.01642 20.9836C0.471021 20.4382 0.2 19.7809 0.2 19V18C0.2 17.7671 0.276692 17.5816 0.429176 17.4297ZM17.4297 1.57082L17.4292 1.57033C17.2767 1.41838 17.2 1.23285 17.2 1C17.2 0.76714 17.2767 0.581135 17.4294 0.428421C17.5813 0.276518 17.7669 0.2 18 0.2H19C19.7809 0.2 20.4382 0.471021 20.9836 1.01642C21.529 1.56182 21.8 2.2191 21.8 3V4C21.8 4.23286 21.7233 4.41887 21.5706 4.57158C21.4187 4.72348 21.2331 4.8 21 4.8C20.7669 4.8 20.5813 4.72348 20.4294 4.57158C20.2767 4.41887 20.2 4.23286 20.2 4V3C20.2 2.66619 20.0847 2.37686 19.8534 2.14558L19.712 2.287L19.8534 2.14558C19.6227 1.91482 19.3336 1.8 19 1.8H18C17.7671 1.8 17.5816 1.72331 17.4297 1.57082ZM9.90031 16.4234L10.2 16.5957V16.25V11.65V11.5343L10.0997 11.4766L6.09969 9.17662L5.8 9.0043V9.35V13.95V14.0657L5.90031 14.1234L9.90031 16.4234ZM11.8 16.25V16.5957L12.0997 16.4234L16.0997 14.1234L16.2 14.0657V13.95V9.35V9.0043L15.9003 9.17662L11.9003 11.4766L11.8 11.5343V11.65V16.25ZM10.9003 10.0734L11 10.1307L11.0997 10.0734L15.0997 7.77338L15.4012 7.6L15.0997 7.42662L11.0997 5.12662L11 5.06929L10.9003 5.12662L6.90031 7.42662L6.59877 7.6L6.90031 7.77338L10.9003 10.0734ZM1 4.8C0.766927 4.8 0.581324 4.72348 0.429421 4.57158C0.276708 4.41887 0.2 4.23286 0.2 4V3C0.2 2.2191 0.471021 1.56182 1.01642 1.01642C1.56182 0.471021 2.2191 0.2 3 0.2H4C4.23297 0.2 4.41899 0.276461 4.57161 0.428453C4.72356 0.581065 4.8 0.767062 4.8 1C4.8 1.23307 4.72348 1.41868 4.57158 1.57058C4.41887 1.72329 4.23286 1.8 4 1.8H3C2.66641 1.8 2.37734 1.91481 2.14658 2.14558C1.91529 2.37687 1.8 2.66619 1.8 3V4C1.8 4.23298 1.72353 4.41899 1.57154 4.57162C1.41893 4.72356 1.23293 4.8 1 4.8Z"
        fill="#2B2A70"
        stroke="#F8F9FA"
        stroke-width="0.4"
    />
</svg>
