<svg
    width="24"
    height="24"
    viewBox="0 0 24 24"
    fill="none"
    xmlns="http://www.w3.org/2000/svg"
>
    <path
        fill-rule="evenodd"
        clip-rule="evenodd"
        d="M4.92857 8.78571V4.92857H8.78571V8.78571H4.92857ZM3 4.28571C3 3.94472 3.13546 3.6177 3.37658 3.37658C3.6177 3.13546 3.94472 3 4.28571 3H9.42857C9.76956 3 10.0966 3.13546 10.3377 3.37658C10.5788 3.6177 10.7143 3.94472 10.7143 4.28571V9.42857C10.7143 9.76956 10.5788 10.0966 10.3377 10.3377C10.0966 10.5788 9.76956 10.7143 9.42857 10.7143H4.28571C3.94472 10.7143 3.6177 10.5788 3.37658 10.3377C3.13546 10.0966 3 9.76956 3 9.42857V4.28571ZM13.2857 4.60714C13.2857 4.3514 13.3873 4.10613 13.5681 3.92529C13.749 3.74445 13.9943 3.64286 14.25 3.64286H20.0357C20.2915 3.64286 20.5367 3.74445 20.7176 3.92529C20.8984 4.10613 21 4.3514 21 4.60714C21 4.86289 20.8984 5.10816 20.7176 5.289C20.5367 5.46983 20.2915 5.57143 20.0357 5.57143H14.25C13.9943 5.57143 13.749 5.46983 13.5681 5.289C13.3873 5.10816 13.2857 4.86289 13.2857 4.60714ZM14.25 8.14286C13.9943 8.14286 13.749 8.24445 13.5681 8.42529C13.3873 8.60613 13.2857 8.8514 13.2857 9.10714C13.2857 9.36289 13.3873 9.60816 13.5681 9.789C13.749 9.96983 13.9943 10.0714 14.25 10.0714H20.0357C20.2915 10.0714 20.5367 9.96983 20.7176 9.789C20.8984 9.60816 21 9.36289 21 9.10714C21 8.8514 20.8984 8.60613 20.7176 8.42529C20.5367 8.24445 20.2915 8.14286 20.0357 8.14286H14.25ZM4.92857 15.2143V19.0714H8.78571V15.2143H4.92857ZM4.28571 13.2857C3.94472 13.2857 3.6177 13.4212 3.37658 13.6623C3.13546 13.9034 3 14.2304 3 14.5714V19.7143C3 20.0553 3.13546 20.3823 3.37658 20.6234C3.6177 20.8645 3.94472 21 4.28571 21H9.42857C9.76956 21 10.0966 20.8645 10.3377 20.6234C10.5788 20.3823 10.7143 20.0553 10.7143 19.7143V14.5714C10.7143 14.2304 10.5788 13.9034 10.3377 13.6623C10.0966 13.4212 9.76956 13.2857 9.42857 13.2857H4.28571ZM14.25 13.9286C13.9943 13.9286 13.749 14.0302 13.5681 14.211C13.3873 14.3918 13.2857 14.6371 13.2857 14.8929C13.2857 15.1486 13.3873 15.3939 13.5681 15.5747C13.749 15.7555 13.9943 15.8571 14.25 15.8571H20.0357C20.2915 15.8571 20.5367 15.7555 20.7176 15.5747C20.8984 15.3939 21 15.1486 21 14.8929C21 14.6371 20.8984 14.3918 20.7176 14.211C20.5367 14.0302 20.2915 13.9286 20.0357 13.9286H14.25ZM14.25 18.4286C13.9943 18.4286 13.749 18.5302 13.5681 18.711C13.3873 18.8918 13.2857 19.1371 13.2857 19.3929C13.2857 19.6486 13.3873 19.8939 13.5681 20.0747C13.749 20.2555 13.9943 20.3571 14.25 20.3571H20.0357C20.2915 20.3571 20.5367 20.2555 20.7176 20.0747C20.8984 19.8939 21 19.6486 21 19.3929C21 19.1371 20.8984 18.8918 20.7176 18.711C20.5367 18.5302 20.2915 18.4286 20.0357 18.4286H14.25Z"
        fill="#2B2A70"
    />
</svg>
