<svg
    width="20"
    height="20"
    viewBox="0 0 20 20"
    fill="none"
    xmlns="http://www.w3.org/2000/svg"
>
    <g clip-path="url(#clip0_1_1311)">
        <path
            d="M7.24145 18.8711L1.26639 12.6423L2.87434 11.2207L2.87453 11.2206C3.34458 10.8036 4.03505 10.7204 4.58764 11.0157L4.58796 11.0158L6.59629 12.0825L6.81665 12.1995V11.95V3.9917V3.99154C6.81636 3.70402 6.8802 3.42005 7.00352 3.16032C7.12684 2.90059 7.30654 2.67164 7.52953 2.49013C7.75252 2.30863 8.01319 2.17915 8.29254 2.11111C8.5719 2.04308 8.86291 2.03822 9.14439 2.09687L9.31275 2.13196L9.32463 1.96039C9.39427 0.954522 10.23 0.158362 11.25 0.158362C11.9149 0.158362 12.4944 0.490354 12.8427 1.0012L12.9114 1.1019L13.024 1.0553C13.246 0.96343 13.493 0.916695 13.75 0.916695C14.2627 0.916695 14.7545 1.12039 15.1171 1.48296C15.4796 1.84553 15.6833 2.33728 15.6833 2.85003V3.08336V3.26707L15.8633 3.23033C16.1442 3.17299 16.4344 3.17885 16.7128 3.24748C16.9912 3.31612 17.2508 3.44581 17.4729 3.62717C17.695 3.80853 17.8739 4.03702 17.9968 4.29608C18.1197 4.55513 18.1834 4.83828 18.1833 5.125V5.12503V16.6667C18.1833 18.4255 16.7588 19.85 15 19.85H9.54165C8.68238 19.85 7.83811 19.4916 7.24145 18.8711ZM3.35074 12.6209L3.2334 12.7244L3.34181 12.8373L8.22515 17.9206L8.22589 17.9214C8.56925 18.2738 9.04072 18.4834 9.53332 18.4834H15C15.9995 18.4834 16.8167 17.6662 16.8167 16.6667V5.12503C16.8167 4.80885 16.5662 4.55836 16.25 4.55836C15.9338 4.55836 15.6833 4.80885 15.6833 5.12503V9.85003H14.3167V2.85003C14.3167 2.53385 14.0662 2.28336 13.75 2.28336C13.4338 2.28336 13.1833 2.53385 13.1833 2.85003V9.85003H11.8167V2.0917C11.8167 1.77552 11.5662 1.52503 11.25 1.52503C10.9338 1.52503 10.6833 1.77552 10.6833 2.0917V9.85003H9.31665V3.9917C9.31665 3.67552 9.06616 3.42503 8.74999 3.42503C8.43187 3.42503 8.18332 3.68581 8.18332 3.9917V14.4677L3.94513 12.2258L3.85348 12.1773L3.77574 12.2459L3.35074 12.6209Z"
            fill="#2B2A70"
            stroke="white"
            stroke-width="0.3"
        />
    </g>
    <defs>
        <clipPath id="clip0_1_1311">
            <rect width="20" height="20" fill="white" />
        </clipPath>
    </defs>
</svg>
