<svg
    width="24"
    height="24"
    viewBox="0 0 24 24"
    fill="none"
    xmlns="http://www.w3.org/2000/svg"
>
    <path
        d="M5.48899 10.317V4.61798H7.18999V7.02498V7.33336L7.43259 7.14298C8.49069 6.31266 9.76981 5.8122 11.1104 5.70402C12.4511 5.59584 13.7939 5.88472 14.9714 6.53465C16.149 7.18457 17.1091 8.16677 17.7322 9.35876C18.3552 10.5508 18.6135 11.8998 18.4749 13.2376C18.3364 14.5754 17.807 15.8429 16.9529 16.8819C16.0988 17.9208 14.9577 18.6854 13.6719 19.0801C12.3861 19.4749 11.0126 19.4824 9.72263 19.1017C8.48401 18.7362 7.37503 18.0284 6.52256 17.0612L7.90192 16.0516C8.5502 16.7437 9.37774 17.2441 10.2938 17.4963C11.2538 17.7606 12.2698 17.7409 13.2188 17.4396C14.1679 17.1384 15.0092 16.5685 15.6411 15.7989C16.2729 15.0293 16.6681 14.0931 16.7787 13.1035C16.8894 12.114 16.7109 11.1136 16.2648 10.2234C15.8186 9.33326 15.124 8.59152 14.2649 8.088C13.4059 7.58449 12.4194 7.34079 11.4247 7.38641C10.43 7.43203 9.46993 7.76502 8.66061 8.34506L8.2812 8.61698H8.74799H11.189V10.317H5.48899Z"
        fill="#2B2A70"
        stroke="white"
        stroke-width="0.3"
    />
</svg>
